<mxfile host="65bd71144e">
    <diagram id="0iN4cRk-O3f9heEpMg_g" name="Page-1">
        <mxGraphModel dx="2120" dy="539" grid="1" gridSize="10" guides="1" tooltips="1" connect="1" arrows="1" fold="1" page="1" pageScale="1" pageWidth="850" pageHeight="1100" background="#ffffff" math="0" shadow="0">
            <root>
                <mxCell id="0"/>
                <mxCell id="1" parent="0"/>
                <mxCell id="29aiM7jhphycKeGwUz8S-73" value="" style="rounded=0;whiteSpace=wrap;html=1;dashed=1;strokeColor=#000000;fillColor=none;fontSize=10;align=center;perimeterSpacing=0;strokeWidth=1;" parent="1" vertex="1">
                    <mxGeometry x="40" y="80" width="770" height="550" as="geometry"/>
                </mxCell>
                <mxCell id="29aiM7jhphycKeGwUz8S-50" value="OPCODE [7:0]" style="text;html=1;align=left;verticalAlign=middle;resizable=0;points=[];autosize=1;fontSize=10;" parent="1" vertex="1">
                    <mxGeometry x="80" y="220" width="80" height="20" as="geometry"/>
                </mxCell>
                <mxCell id="29aiM7jhphycKeGwUz8S-15" style="edgeStyle=orthogonalEdgeStyle;rounded=0;orthogonalLoop=1;jettySize=auto;html=1;exitX=1;exitY=0.75;exitDx=0;exitDy=0;" parent="1" source="29aiM7jhphycKeGwUz8S-2" target="29aiM7jhphycKeGwUz8S-3" edge="1">
                    <mxGeometry relative="1" as="geometry">
                        <Array as="points">
                            <mxPoint x="240" y="270"/>
                        </Array>
                    </mxGeometry>
                </mxCell>
                <mxCell id="29aiM7jhphycKeGwUz8S-47" style="edgeStyle=orthogonalEdgeStyle;rounded=0;orthogonalLoop=1;jettySize=auto;html=1;exitX=0.75;exitY=1;exitDx=0;exitDy=0;entryX=1;entryY=0.5;entryDx=0;entryDy=0;fontSize=10;" parent="1" source="29aiM7jhphycKeGwUz8S-2" target="29aiM7jhphycKeGwUz8S-17" edge="1">
                    <mxGeometry relative="1" as="geometry">
                        <Array as="points">
                            <mxPoint x="220" y="370"/>
                            <mxPoint x="570" y="370"/>
                        </Array>
                    </mxGeometry>
                </mxCell>
                <mxCell id="29aiM7jhphycKeGwUz8S-48" style="edgeStyle=orthogonalEdgeStyle;rounded=0;orthogonalLoop=1;jettySize=auto;html=1;exitX=0.5;exitY=1;exitDx=0;exitDy=0;entryX=1;entryY=0.5;entryDx=0;entryDy=0;fontSize=10;" parent="1" source="29aiM7jhphycKeGwUz8S-2" target="29aiM7jhphycKeGwUz8S-31" edge="1">
                    <mxGeometry relative="1" as="geometry">
                        <Array as="points">
                            <mxPoint x="200" y="380"/>
                            <mxPoint x="630" y="380"/>
                        </Array>
                    </mxGeometry>
                </mxCell>
                <mxCell id="29aiM7jhphycKeGwUz8S-49" style="edgeStyle=orthogonalEdgeStyle;rounded=0;orthogonalLoop=1;jettySize=auto;html=1;exitX=0.25;exitY=1;exitDx=0;exitDy=0;fontSize=10;entryX=0.504;entryY=0.83;entryDx=0;entryDy=0;entryPerimeter=0;strokeWidth=2;" parent="1" source="29aiM7jhphycKeGwUz8S-2" target="29aiM7jhphycKeGwUz8S-42" edge="1">
                    <mxGeometry relative="1" as="geometry">
                        <Array as="points">
                            <mxPoint x="180" y="390"/>
                            <mxPoint x="720" y="390"/>
                        </Array>
                    </mxGeometry>
                </mxCell>
                <mxCell id="29aiM7jhphycKeGwUz8S-2" value="Control Unit" style="rounded=0;whiteSpace=wrap;html=1;" parent="1" vertex="1">
                    <mxGeometry x="160" y="180" width="80" height="120" as="geometry"/>
                </mxCell>
                <mxCell id="29aiM7jhphycKeGwUz8S-19" style="edgeStyle=orthogonalEdgeStyle;rounded=0;orthogonalLoop=1;jettySize=auto;html=1;exitX=1;exitY=0.25;exitDx=0;exitDy=0;entryX=0.25;entryY=1;entryDx=0;entryDy=0;strokeWidth=2;" parent="1" source="29aiM7jhphycKeGwUz8S-3" target="29aiM7jhphycKeGwUz8S-17" edge="1">
                    <mxGeometry relative="1" as="geometry"/>
                </mxCell>
                <mxCell id="29aiM7jhphycKeGwUz8S-23" style="edgeStyle=orthogonalEdgeStyle;rounded=0;orthogonalLoop=1;jettySize=auto;html=1;exitX=1;exitY=0.25;exitDx=0;exitDy=0;entryX=0;entryY=0.5;entryDx=0;entryDy=0;strokeWidth=2;" parent="1" source="29aiM7jhphycKeGwUz8S-3" target="29aiM7jhphycKeGwUz8S-16" edge="1">
                    <mxGeometry relative="1" as="geometry">
                        <Array as="points">
                            <mxPoint x="470" y="200"/>
                            <mxPoint x="470" y="240"/>
                        </Array>
                    </mxGeometry>
                </mxCell>
                <mxCell id="29aiM7jhphycKeGwUz8S-46" style="edgeStyle=orthogonalEdgeStyle;rounded=0;orthogonalLoop=1;jettySize=auto;html=1;exitX=1;exitY=0.75;exitDx=0;exitDy=0;entryX=-0.016;entryY=0.735;entryDx=0;entryDy=0;entryPerimeter=0;fontSize=10;strokeWidth=2;" parent="1" source="29aiM7jhphycKeGwUz8S-3" target="29aiM7jhphycKeGwUz8S-42" edge="1">
                    <mxGeometry relative="1" as="geometry"/>
                </mxCell>
                <mxCell id="29aiM7jhphycKeGwUz8S-3" value="8x8 Register File" style="rounded=0;whiteSpace=wrap;html=1;" parent="1" vertex="1">
                    <mxGeometry x="380" y="160" width="80" height="160" as="geometry"/>
                </mxCell>
                <mxCell id="29aiM7jhphycKeGwUz8S-8" style="edgeStyle=orthogonalEdgeStyle;rounded=0;orthogonalLoop=1;jettySize=auto;html=1;exitX=0;exitY=0.5;exitDx=0;exitDy=0;entryX=0;entryY=0.5;entryDx=0;entryDy=0;strokeWidth=2;" parent="1" source="29aiM7jhphycKeGwUz8S-4" target="29aiM7jhphycKeGwUz8S-2" edge="1">
                    <mxGeometry relative="1" as="geometry">
                        <Array as="points">
                            <mxPoint x="70" y="720"/>
                            <mxPoint x="70" y="240"/>
                        </Array>
                    </mxGeometry>
                </mxCell>
                <mxCell id="29aiM7jhphycKeGwUz8S-11" style="edgeStyle=orthogonalEdgeStyle;rounded=0;orthogonalLoop=1;jettySize=auto;html=1;exitX=0;exitY=0.5;exitDx=0;exitDy=0;entryX=0;entryY=0.125;entryDx=0;entryDy=0;entryPerimeter=0;strokeWidth=2;" parent="1" source="29aiM7jhphycKeGwUz8S-4" target="29aiM7jhphycKeGwUz8S-3" edge="1">
                    <mxGeometry relative="1" as="geometry">
                        <mxPoint x="320" y="180" as="targetPoint"/>
                        <Array as="points">
                            <mxPoint x="70" y="720"/>
                            <mxPoint x="70" y="120"/>
                            <mxPoint x="280" y="120"/>
                            <mxPoint x="280" y="180"/>
                        </Array>
                    </mxGeometry>
                </mxCell>
                <mxCell id="29aiM7jhphycKeGwUz8S-12" style="edgeStyle=orthogonalEdgeStyle;rounded=0;orthogonalLoop=1;jettySize=auto;html=1;exitX=0;exitY=0.5;exitDx=0;exitDy=0;strokeWidth=2;" parent="1" source="29aiM7jhphycKeGwUz8S-4" target="29aiM7jhphycKeGwUz8S-3" edge="1">
                    <mxGeometry relative="1" as="geometry">
                        <mxPoint x="320" y="210" as="targetPoint"/>
                        <Array as="points">
                            <mxPoint x="70" y="720"/>
                            <mxPoint x="70" y="130"/>
                            <mxPoint x="270" y="130"/>
                            <mxPoint x="270" y="211"/>
                        </Array>
                    </mxGeometry>
                </mxCell>
                <mxCell id="29aiM7jhphycKeGwUz8S-13" style="edgeStyle=orthogonalEdgeStyle;rounded=0;orthogonalLoop=1;jettySize=auto;html=1;exitX=0;exitY=0.5;exitDx=0;exitDy=0;entryX=0;entryY=0.5;entryDx=0;entryDy=0;strokeWidth=2;" parent="1" source="29aiM7jhphycKeGwUz8S-4" target="29aiM7jhphycKeGwUz8S-3" edge="1">
                    <mxGeometry relative="1" as="geometry">
                        <Array as="points">
                            <mxPoint x="70" y="720"/>
                            <mxPoint x="70" y="140"/>
                            <mxPoint x="260" y="140"/>
                            <mxPoint x="260" y="240"/>
                        </Array>
                    </mxGeometry>
                </mxCell>
                <mxCell id="29aiM7jhphycKeGwUz8S-33" style="edgeStyle=orthogonalEdgeStyle;rounded=0;orthogonalLoop=1;jettySize=auto;html=1;exitX=0;exitY=0.5;exitDx=0;exitDy=0;entryX=0.25;entryY=1;entryDx=0;entryDy=0;fontSize=10;strokeWidth=2;" parent="1" source="29aiM7jhphycKeGwUz8S-4" target="29aiM7jhphycKeGwUz8S-31" edge="1">
                    <mxGeometry relative="1" as="geometry">
                        <Array as="points">
                            <mxPoint x="70" y="720"/>
                            <mxPoint x="70" y="110"/>
                            <mxPoint x="600" y="110"/>
                            <mxPoint x="600" y="180"/>
                        </Array>
                    </mxGeometry>
                </mxCell>
                <mxCell id="29aiM7jhphycKeGwUz8S-4" value="Instruction Memory" style="rounded=0;whiteSpace=wrap;html=1;" parent="1" vertex="1">
                    <mxGeometry x="160" y="640" width="80" height="160" as="geometry"/>
                </mxCell>
                <mxCell id="29aiM7jhphycKeGwUz8S-6" value="PC" style="rounded=0;whiteSpace=wrap;html=1;" parent="1" vertex="1">
                    <mxGeometry x="160" y="480" width="80" height="40" as="geometry"/>
                </mxCell>
                <mxCell id="29aiM7jhphycKeGwUz8S-20" style="edgeStyle=orthogonalEdgeStyle;rounded=0;orthogonalLoop=1;jettySize=auto;html=1;exitX=1;exitY=0.5;exitDx=0;exitDy=0;entryX=0.75;entryY=1;entryDx=0;entryDy=0;strokeWidth=2;" parent="1" source="29aiM7jhphycKeGwUz8S-16" target="29aiM7jhphycKeGwUz8S-17" edge="1">
                    <mxGeometry relative="1" as="geometry"/>
                </mxCell>
                <mxCell id="29aiM7jhphycKeGwUz8S-16" value="2's Comp" style="rounded=0;whiteSpace=wrap;html=1;" parent="1" vertex="1">
                    <mxGeometry x="490" y="225" width="50" height="30" as="geometry"/>
                </mxCell>
                <mxCell id="29aiM7jhphycKeGwUz8S-32" style="edgeStyle=orthogonalEdgeStyle;rounded=0;orthogonalLoop=1;jettySize=auto;html=1;exitX=0.5;exitY=0;exitDx=0;exitDy=0;entryX=0.75;entryY=1;entryDx=0;entryDy=0;fontSize=10;strokeWidth=2;" parent="1" source="29aiM7jhphycKeGwUz8S-17" target="29aiM7jhphycKeGwUz8S-31" edge="1">
                    <mxGeometry relative="1" as="geometry"/>
                </mxCell>
                <mxCell id="29aiM7jhphycKeGwUz8S-17" value="M&lt;br&gt;U&lt;br&gt;X" style="shape=trapezoid;perimeter=trapezoidPerimeter;whiteSpace=wrap;html=1;rotation=90;horizontal=0;" parent="1" vertex="1">
                    <mxGeometry x="530" y="206.25" width="80" height="27.5" as="geometry"/>
                </mxCell>
                <mxCell id="29aiM7jhphycKeGwUz8S-24" value="READREG2 [2:0]" style="text;html=1;align=left;verticalAlign=middle;resizable=0;points=[];autosize=1;fontSize=10;" parent="1" vertex="1">
                    <mxGeometry x="287" y="160" width="90" height="20" as="geometry"/>
                </mxCell>
                <mxCell id="29aiM7jhphycKeGwUz8S-25" value="READREG1 [2:0]" style="text;html=1;align=left;verticalAlign=middle;resizable=0;points=[];autosize=1;fontSize=10;" parent="1" vertex="1">
                    <mxGeometry x="287" y="190.25" width="90" height="20" as="geometry"/>
                </mxCell>
                <mxCell id="29aiM7jhphycKeGwUz8S-26" value="WRITEREG [2:0]" style="text;html=1;align=left;verticalAlign=middle;resizable=0;points=[];autosize=1;fontSize=10;" parent="1" vertex="1">
                    <mxGeometry x="287" y="220" width="90" height="20" as="geometry"/>
                </mxCell>
                <mxCell id="29aiM7jhphycKeGwUz8S-27" value="WRITEENABLE" style="text;html=1;align=left;verticalAlign=middle;resizable=0;points=[];autosize=1;fontSize=10;" parent="1" vertex="1">
                    <mxGeometry x="287" y="250" width="90" height="20" as="geometry"/>
                </mxCell>
                <mxCell id="29aiM7jhphycKeGwUz8S-30" value="REGOUT2 [7:0]" style="text;html=1;strokeColor=none;fillColor=none;align=center;verticalAlign=middle;whiteSpace=wrap;rounded=0;fontSize=10;" parent="1" vertex="1">
                    <mxGeometry x="460" y="180" width="80" height="20" as="geometry"/>
                </mxCell>
                <mxCell id="29aiM7jhphycKeGwUz8S-43" style="edgeStyle=orthogonalEdgeStyle;rounded=0;orthogonalLoop=1;jettySize=auto;html=1;exitX=0.5;exitY=0;exitDx=0;exitDy=0;fontSize=10;strokeWidth=2;" parent="1" source="29aiM7jhphycKeGwUz8S-31" edge="1">
                    <mxGeometry relative="1" as="geometry">
                        <mxPoint x="679" y="200" as="targetPoint"/>
                    </mxGeometry>
                </mxCell>
                <mxCell id="29aiM7jhphycKeGwUz8S-31" value="M&lt;br&gt;U&lt;br&gt;X" style="shape=trapezoid;perimeter=trapezoidPerimeter;whiteSpace=wrap;html=1;rotation=90;horizontal=0;" parent="1" vertex="1">
                    <mxGeometry x="590" y="186.5" width="80" height="27.5" as="geometry"/>
                </mxCell>
                <mxCell id="29aiM7jhphycKeGwUz8S-34" value="IMMEDIATE [7:0]" style="text;html=1;align=center;verticalAlign=middle;resizable=0;points=[];autosize=1;fontSize=10;" parent="1" vertex="1">
                    <mxGeometry x="320" y="90" width="90" height="20" as="geometry"/>
                </mxCell>
                <mxCell id="29aiM7jhphycKeGwUz8S-44" style="edgeStyle=orthogonalEdgeStyle;rounded=0;orthogonalLoop=1;jettySize=auto;html=1;exitX=0.7;exitY=0.53;exitDx=0;exitDy=0;entryX=-0.005;entryY=0.864;entryDx=0;entryDy=0;entryPerimeter=0;fontSize=10;exitPerimeter=0;strokeWidth=2;" parent="1" source="29aiM7jhphycKeGwUz8S-42" target="29aiM7jhphycKeGwUz8S-3" edge="1">
                    <mxGeometry relative="1" as="geometry">
                        <Array as="points">
                            <mxPoint x="780" y="245"/>
                            <mxPoint x="780" y="360"/>
                            <mxPoint x="360" y="360"/>
                            <mxPoint x="360" y="298"/>
                        </Array>
                    </mxGeometry>
                </mxCell>
                <mxCell id="29aiM7jhphycKeGwUz8S-42" value="&amp;nbsp; &amp;nbsp; &amp;nbsp; &amp;nbsp;ALU" style="shape=stencil(vZXdjoMgEIWfhtsGYY3XG3f3PailKykFA/Tv7TuKNmJL2zRiYgwwx+8wZAYRLW3NGo4IrhH9QYRkGMMb5qfJnNmGV84vHpkRbC25j1hn9I6fxMb1DKFqboRro/QX4W/QtM9tQMtKKwU0oZUNJBPhSA4mTChg4rM36bd1CWYN+O6546bfvF9F5O9jl1W+iE+2TDahy5Bb6myS+YT5ZAvVQCqfbDYXWoIg1mMj1ZpVu3+jD2rzkhaRjkRbbfhr2E0tpPQXx/uH1rD2hrnTPVQP3+z1kUcb4NlhPqVKoUbUIsSSPA23mIs7aZvhhp+ZmxczYafcNNv9oh9jK6ltvIwjxQziSD3fSd/tkw4aaUMYdGH/u+8iVw==);whiteSpace=wrap;html=1;strokeColor=#000000;fillColor=#ffffff;fontSize=10;align=left;" parent="1" vertex="1">
                    <mxGeometry x="680" y="155" width="80" height="170" as="geometry"/>
                </mxCell>
                <mxCell id="29aiM7jhphycKeGwUz8S-51" value="INSTRUCTION&lt;br&gt;[31:0]" style="text;html=1;align=left;verticalAlign=middle;resizable=0;points=[];autosize=1;fontSize=10;" parent="1" vertex="1">
                    <mxGeometry x="70" y="690" width="80" height="30" as="geometry"/>
                </mxCell>
                <mxCell id="29aiM7jhphycKeGwUz8S-53" value="PC&lt;br&gt;[31:0]" style="text;html=1;align=left;verticalAlign=middle;resizable=0;points=[];autosize=1;fontSize=10;" parent="1" vertex="1">
                    <mxGeometry x="247" y="690" width="40" height="30" as="geometry"/>
                </mxCell>
                <mxCell id="29aiM7jhphycKeGwUz8S-55" style="edgeStyle=orthogonalEdgeStyle;rounded=0;orthogonalLoop=1;jettySize=auto;html=1;entryX=0;entryY=0.25;entryDx=0;entryDy=0;fontSize=10;" parent="1" source="29aiM7jhphycKeGwUz8S-54" target="29aiM7jhphycKeGwUz8S-6" edge="1">
                    <mxGeometry relative="1" as="geometry">
                        <Array as="points">
                            <mxPoint x="100" y="490"/>
                            <mxPoint x="100" y="490"/>
                        </Array>
                    </mxGeometry>
                </mxCell>
                <mxCell id="29aiM7jhphycKeGwUz8S-56" style="edgeStyle=orthogonalEdgeStyle;rounded=0;orthogonalLoop=1;jettySize=auto;html=1;exitX=1;exitY=0.5;exitDx=0;exitDy=0;entryX=0.25;entryY=1;entryDx=0;entryDy=0;fontSize=10;" parent="1" source="29aiM7jhphycKeGwUz8S-54" target="29aiM7jhphycKeGwUz8S-3" edge="1">
                    <mxGeometry relative="1" as="geometry">
                        <Array as="points">
                            <mxPoint y="490"/>
                            <mxPoint x="50" y="490"/>
                            <mxPoint x="50" y="340"/>
                            <mxPoint x="400" y="340"/>
                        </Array>
                    </mxGeometry>
                </mxCell>
                <mxCell id="29aiM7jhphycKeGwUz8S-54" value="RESET" style="text;html=1;strokeColor=none;fillColor=none;align=right;verticalAlign=middle;whiteSpace=wrap;rounded=0;fontSize=10;" parent="1" vertex="1">
                    <mxGeometry x="-40" y="480" width="40" height="20" as="geometry"/>
                </mxCell>
                <mxCell id="29aiM7jhphycKeGwUz8S-60" style="edgeStyle=orthogonalEdgeStyle;rounded=0;orthogonalLoop=1;jettySize=auto;html=1;exitX=1;exitY=0.5;exitDx=0;exitDy=0;entryX=0;entryY=0.75;entryDx=0;entryDy=0;fontSize=10;" parent="1" source="29aiM7jhphycKeGwUz8S-57" target="29aiM7jhphycKeGwUz8S-6" edge="1">
                    <mxGeometry relative="1" as="geometry">
                        <Array as="points">
                            <mxPoint y="510"/>
                        </Array>
                    </mxGeometry>
                </mxCell>
                <mxCell id="29aiM7jhphycKeGwUz8S-61" style="edgeStyle=orthogonalEdgeStyle;rounded=0;orthogonalLoop=1;jettySize=auto;html=1;exitX=1;exitY=0.5;exitDx=0;exitDy=0;entryX=0.75;entryY=1;entryDx=0;entryDy=0;fontSize=10;" parent="1" source="29aiM7jhphycKeGwUz8S-57" target="29aiM7jhphycKeGwUz8S-3" edge="1">
                    <mxGeometry relative="1" as="geometry">
                        <Array as="points">
                            <mxPoint y="510"/>
                            <mxPoint x="60" y="510"/>
                            <mxPoint x="60" y="350"/>
                            <mxPoint x="440" y="350"/>
                        </Array>
                    </mxGeometry>
                </mxCell>
                <mxCell id="29aiM7jhphycKeGwUz8S-57" value="CLK" style="text;html=1;strokeColor=none;fillColor=none;align=right;verticalAlign=middle;whiteSpace=wrap;rounded=0;fontSize=10;" parent="1" vertex="1">
                    <mxGeometry x="-40" y="500" width="40" height="20" as="geometry"/>
                </mxCell>
                <mxCell id="29aiM7jhphycKeGwUz8S-64" value="" style="triangle;whiteSpace=wrap;html=1;strokeColor=#000000;fillColor=#ffffff;fontSize=10;align=right;" parent="1" vertex="1">
                    <mxGeometry x="160" y="506" width="6" height="8" as="geometry"/>
                </mxCell>
                <mxCell id="29aiM7jhphycKeGwUz8S-65" value="" style="triangle;whiteSpace=wrap;html=1;strokeColor=#000000;fillColor=#ffffff;fontSize=10;align=right;rotation=-90;" parent="1" vertex="1">
                    <mxGeometry x="437" y="313" width="6" height="8" as="geometry"/>
                </mxCell>
                <mxCell id="29aiM7jhphycKeGwUz8S-66" value="REGOUT1 [7:0]" style="text;html=1;strokeColor=none;fillColor=none;align=center;verticalAlign=middle;whiteSpace=wrap;rounded=0;fontSize=10;" parent="1" vertex="1">
                    <mxGeometry x="460" y="260" width="80" height="20" as="geometry"/>
                </mxCell>
                <mxCell id="29aiM7jhphycKeGwUz8S-67" value="ALUOP [2:0]" style="text;html=1;align=center;verticalAlign=middle;resizable=0;points=[];autosize=1;fontSize=10;" parent="1" vertex="1">
                    <mxGeometry x="650" y="325" width="70" height="20" as="geometry"/>
                </mxCell>
                <mxCell id="29aiM7jhphycKeGwUz8S-68" value="ALURESULT [7:0]" style="text;html=1;align=center;verticalAlign=middle;resizable=0;points=[];autosize=1;fontSize=10;rotation=90;" parent="1" vertex="1">
                    <mxGeometry x="740" y="293" width="100" height="20" as="geometry"/>
                </mxCell>
                <mxCell id="29aiM7jhphycKeGwUz8S-74" value="CPU" style="text;html=1;align=center;verticalAlign=middle;resizable=0;points=[];autosize=1;fontSize=12;" parent="1" vertex="1">
                    <mxGeometry x="770" y="80" width="40" height="20" as="geometry"/>
                </mxCell>
                <mxCell id="24" value="" style="shape=or;whiteSpace=wrap;html=1;fontSize=12;direction=south;fillColor=#ffe6cc;strokeColor=#d79b00;" parent="1" vertex="1">
                    <mxGeometry x="490" y="420" width="50" height="30" as="geometry"/>
                </mxCell>
                <mxCell id="63" value="" style="endArrow=classic;html=1;rounded=0;fontSize=12;strokeWidth=1;exitX=0.705;exitY=0.379;exitDx=0;exitDy=0;exitPerimeter=0;entryX=0;entryY=0.25;entryDx=0;entryDy=0;entryPerimeter=0;fillColor=#ffe6cc;strokeColor=#d79b00;" parent="1" source="29aiM7jhphycKeGwUz8S-42" target="24" edge="1">
                    <mxGeometry width="50" height="50" relative="1" as="geometry">
                        <mxPoint x="600" y="330" as="sourcePoint"/>
                        <mxPoint x="810" y="219" as="targetPoint"/>
                        <Array as="points">
                            <mxPoint x="800" y="219"/>
                            <mxPoint x="800" y="410"/>
                            <mxPoint x="540" y="410"/>
                        </Array>
                    </mxGeometry>
                </mxCell>
                <mxCell id="66" value="" style="edgeStyle=none;rounded=0;html=1;fontSize=12;strokeWidth=2;exitX=0.72;exitY=0.487;exitDx=0;exitDy=0;exitPerimeter=0;entryX=0.814;entryY=1.014;entryDx=0;entryDy=0;entryPerimeter=0;" parent="1" source="64" edge="1" target="67">
                    <mxGeometry relative="1" as="geometry">
                        <mxPoint x="500" y="529" as="targetPoint"/>
                    </mxGeometry>
                </mxCell>
                <mxCell id="64" value="&amp;nbsp; &amp;nbsp; ADD" style="shape=stencil(vZXdjoMgEIWfhtsGYY3XG3f3PailKykFA/Tv7TuKNmJL2zRiYgwwx+8wZAYRLW3NGo4IrhH9QYRkGMMb5qfJnNmGV84vHpkRbC25j1hn9I6fxMb1DKFqboRro/QX4W/QtM9tQMtKKwU0oZUNJBPhSA4mTChg4rM36bd1CWYN+O6546bfvF9F5O9jl1W+iE+2TDahy5Bb6myS+YT5ZAvVQCqfbDYXWoIg1mMj1ZpVu3+jD2rzkhaRjkRbbfhr2E0tpPQXx/uH1rD2hrnTPVQP3+z1kUcb4NlhPqVKoUbUIsSSPA23mIs7aZvhhp+ZmxczYafcNNv9oh9jK6ltvIwjxQziSD3fSd/tkw4aaUMYdGH/u+8iVw==);whiteSpace=wrap;html=1;strokeColor=#000000;fillColor=#ffffff;fontSize=10;align=left;" parent="1" vertex="1">
                    <mxGeometry x="400" y="510" width="50" height="80" as="geometry"/>
                </mxCell>
                <mxCell id="67" value="M&lt;br&gt;U&lt;br&gt;X" style="shape=trapezoid;perimeter=trapezoidPerimeter;whiteSpace=wrap;html=1;rotation=90;horizontal=0;" parent="1" vertex="1">
                    <mxGeometry x="475" y="510" width="80" height="27.5" as="geometry"/>
                </mxCell>
                <mxCell id="69" value="" style="endArrow=classic;html=1;rounded=0;fontSize=12;strokeWidth=2;entryX=0.203;entryY=0.984;entryDx=0;entryDy=0;entryPerimeter=0;" parent="1" edge="1" target="67">
                    <mxGeometry width="50" height="50" relative="1" as="geometry">
                        <mxPoint x="280" y="500" as="sourcePoint"/>
                        <mxPoint x="490" y="480" as="targetPoint"/>
                    </mxGeometry>
                </mxCell>
                <mxCell id="71" value="" style="endArrow=classic;html=1;rounded=0;fontSize=12;strokeWidth=1;exitX=1;exitY=0.5;exitDx=0;exitDy=0;exitPerimeter=0;entryX=0;entryY=0.5;entryDx=0;entryDy=0;fillColor=#ffe6cc;strokeColor=#d79b00;" parent="1" source="24" target="67" edge="1">
                    <mxGeometry width="50" height="50" relative="1" as="geometry">
                        <mxPoint x="310" y="540" as="sourcePoint"/>
                        <mxPoint x="360" y="490" as="targetPoint"/>
                    </mxGeometry>
                </mxCell>
                <mxCell id="72" value="" style="endArrow=classic;html=1;rounded=0;fontSize=12;strokeWidth=1;exitX=0;exitY=1;exitDx=0;exitDy=0;entryX=0;entryY=0.75;entryDx=0;entryDy=0;entryPerimeter=0;fillColor=#ffe6cc;strokeColor=#d79b00;" parent="1" source="29aiM7jhphycKeGwUz8S-2" target="24" edge="1">
                    <mxGeometry width="50" height="50" relative="1" as="geometry">
                        <mxPoint x="160" y="300" as="sourcePoint"/>
                        <mxPoint x="360" y="390" as="targetPoint"/>
                        <Array as="points">
                            <mxPoint x="160" y="410"/>
                            <mxPoint x="490" y="410"/>
                        </Array>
                    </mxGeometry>
                </mxCell>
                <mxCell id="73" value="" style="endArrow=classic;html=1;rounded=0;fontSize=12;strokeWidth=1;exitX=0.12;exitY=0.995;exitDx=0;exitDy=0;exitPerimeter=0;entryX=0;entryY=0.25;entryDx=0;entryDy=0;fillColor=#ffe6cc;strokeColor=#d79b00;" parent="1" source="29aiM7jhphycKeGwUz8S-2" target="77" edge="1">
                    <mxGeometry width="50" height="50" relative="1" as="geometry">
                        <mxPoint x="310" y="440" as="sourcePoint"/>
                        <mxPoint x="170" y="400" as="targetPoint"/>
                        <Array as="points">
                            <mxPoint x="170" y="400"/>
                            <mxPoint x="600" y="400"/>
                        </Array>
                    </mxGeometry>
                </mxCell>
                <mxCell id="74" value="" style="endArrow=classic;html=1;rounded=0;fontSize=12;strokeWidth=2;exitX=0.5;exitY=0;exitDx=0;exitDy=0;entryX=0.173;entryY=0.967;entryDx=0;entryDy=0;entryPerimeter=0;" parent="1" source="67" target="77" edge="1">
                    <mxGeometry width="50" height="50" relative="1" as="geometry">
                        <mxPoint x="310" y="540" as="sourcePoint"/>
                        <mxPoint x="570" y="504" as="targetPoint"/>
                    </mxGeometry>
                </mxCell>
                <mxCell id="77" value="M&lt;br&gt;U&lt;br&gt;X" style="shape=trapezoid;perimeter=trapezoidPerimeter;whiteSpace=wrap;html=1;rotation=90;horizontal=0;" parent="1" vertex="1">
                    <mxGeometry x="555" y="536" width="80" height="27.5" as="geometry"/>
                </mxCell>
                <mxCell id="78" value="" style="endArrow=classic;html=1;rounded=0;fontSize=12;strokeWidth=2;exitX=0.715;exitY=0.486;exitDx=0;exitDy=0;exitPerimeter=0;entryX=0.75;entryY=1;entryDx=0;entryDy=0;" parent="1" source="64" target="77" edge="1">
                    <mxGeometry width="50" height="50" relative="1" as="geometry">
                        <mxPoint x="500" y="520" as="sourcePoint"/>
                        <mxPoint x="550" y="470" as="targetPoint"/>
                        <Array as="points">
                            <mxPoint x="460" y="549"/>
                            <mxPoint x="460" y="570"/>
                        </Array>
                    </mxGeometry>
                </mxCell>
                <mxCell id="79" value="" style="endArrow=classic;html=1;rounded=0;fontSize=12;strokeWidth=2;exitX=0.5;exitY=0;exitDx=0;exitDy=0;entryX=1;entryY=0.5;entryDx=0;entryDy=0;" parent="1" source="77" target="29aiM7jhphycKeGwUz8S-4" edge="1">
                    <mxGeometry width="50" height="50" relative="1" as="geometry">
                        <mxPoint x="440" y="730" as="sourcePoint"/>
                        <mxPoint x="490" y="680" as="targetPoint"/>
                        <Array as="points">
                            <mxPoint x="630" y="550"/>
                            <mxPoint x="630" y="720"/>
                        </Array>
                    </mxGeometry>
                </mxCell>
                <mxCell id="80" value="" style="endArrow=classic;html=1;rounded=0;fontSize=12;strokeWidth=2;fillColor=#ffe6cc;strokeColor=#d79b00;exitX=0;exitY=0.5;exitDx=0;exitDy=0;entryX=0;entryY=0.544;entryDx=0;entryDy=0;entryPerimeter=0;" parent="1" source="29aiM7jhphycKeGwUz8S-4" target="89" edge="1">
                    <mxGeometry width="50" height="50" relative="1" as="geometry">
                        <mxPoint x="120" y="560" as="sourcePoint"/>
                        <mxPoint x="120" y="560" as="targetPoint"/>
                        <Array as="points">
                            <mxPoint x="70" y="720"/>
                            <mxPoint x="70" y="580"/>
                        </Array>
                    </mxGeometry>
                </mxCell>
                <mxCell id="84" value="zero" style="text;html=1;align=center;verticalAlign=middle;resizable=0;points=[];autosize=1;strokeColor=none;fillColor=none;" parent="1" vertex="1">
                    <mxGeometry x="740" y="200" width="40" height="20" as="geometry"/>
                </mxCell>
                <mxCell id="87" value="Jump" style="text;html=1;align=center;verticalAlign=middle;resizable=0;points=[];autosize=1;strokeColor=none;fillColor=none;rotation=90;" parent="1" vertex="1">
                    <mxGeometry x="590" y="430" width="40" height="20" as="geometry"/>
                </mxCell>
                <mxCell id="88" value="Branch" style="text;html=1;align=center;verticalAlign=middle;resizable=0;points=[];autosize=1;strokeColor=none;fillColor=none;" parent="1" vertex="1">
                    <mxGeometry x="438" y="410" width="50" height="20" as="geometry"/>
                </mxCell>
                <mxCell id="91" style="edgeStyle=none;html=1;entryX=0;entryY=0.5;entryDx=0;entryDy=0;fillColor=#ffe6cc;strokeColor=#d79b00;strokeWidth=2;" parent="1" source="89" target="90" edge="1">
                    <mxGeometry relative="1" as="geometry"/>
                </mxCell>
                <mxCell id="89" value="sign-&lt;br&gt;extend" style="ellipse;whiteSpace=wrap;html=1;" parent="1" vertex="1">
                    <mxGeometry x="160" y="563.75" width="60" height="30" as="geometry"/>
                </mxCell>
                <mxCell id="92" style="edgeStyle=none;html=1;exitX=1;exitY=0.5;exitDx=0;exitDy=0;entryX=-0.009;entryY=0.862;entryDx=0;entryDy=0;entryPerimeter=0;fillColor=#ffe6cc;strokeColor=#d79b00;strokeWidth=2;" parent="1" source="90" target="64" edge="1">
                    <mxGeometry relative="1" as="geometry"/>
                </mxCell>
                <mxCell id="90" value="shift left&lt;br&gt;&amp;nbsp;2" style="ellipse;whiteSpace=wrap;html=1;" parent="1" vertex="1">
                    <mxGeometry x="280" y="563.75" width="60" height="30" as="geometry"/>
                </mxCell>
                <mxCell id="93" value="&lt;span style=&quot;font-size: 10px&quot;&gt;RD [7:0]&lt;/span&gt;" style="text;html=1;align=center;verticalAlign=middle;resizable=0;points=[];autosize=1;strokeColor=none;fillColor=none;" parent="1" vertex="1">
                    <mxGeometry x="100" y="560" width="50" height="20" as="geometry"/>
                </mxCell>
                <mxCell id="95" value="&lt;span style=&quot;font-size: 10px&quot;&gt;RD [31:0]&lt;/span&gt;" style="text;html=1;align=center;verticalAlign=middle;resizable=0;points=[];autosize=1;strokeColor=none;fillColor=none;" parent="1" vertex="1">
                    <mxGeometry x="215" y="560" width="60" height="20" as="geometry"/>
                </mxCell>
                <mxCell id="96" value="&lt;span style=&quot;font-size: 10px ; text-align: left&quot;&gt;PC&lt;/span&gt;&lt;br style=&quot;font-size: 10px ; text-align: left&quot;&gt;&lt;span style=&quot;font-size: 10px ; text-align: left&quot;&gt;[31:0]&lt;/span&gt;" style="text;html=1;align=center;verticalAlign=middle;resizable=0;points=[];autosize=1;strokeColor=none;fillColor=none;" parent="1" vertex="1">
                    <mxGeometry x="240" y="470" width="40" height="30" as="geometry"/>
                </mxCell>
                <mxCell id="97" style="edgeStyle=orthogonalEdgeStyle;rounded=0;orthogonalLoop=1;jettySize=auto;html=1;exitX=1;exitY=0.5;exitDx=0;exitDy=0;strokeWidth=2;entryX=0.009;entryY=0.245;entryDx=0;entryDy=0;entryPerimeter=0;" edge="1" parent="1" source="29aiM7jhphycKeGwUz8S-6" target="64">
                    <mxGeometry relative="1" as="geometry">
                        <Array as="points">
                            <mxPoint x="280" y="500"/>
                            <mxPoint x="280" y="530"/>
                            <mxPoint x="401" y="530"/>
                        </Array>
                        <mxPoint x="400.4499999999998" y="509.5999999999999" as="targetPoint"/>
                        <mxPoint x="240" y="480" as="sourcePoint"/>
                    </mxGeometry>
                </mxCell>
                <mxCell id="120" value="" style="rounded=0;whiteSpace=wrap;html=1;dashed=1;strokeColor=#000000;fillColor=none;fontSize=10;align=center;perimeterSpacing=0;strokeWidth=1;" vertex="1" parent="1">
                    <mxGeometry x="100" y="460" width="520" height="150" as="geometry"/>
                </mxCell>
                <mxCell id="121" value="PC" style="text;html=1;align=center;verticalAlign=middle;resizable=0;points=[];autosize=1;fontSize=12;" vertex="1" parent="1">
                    <mxGeometry x="105" y="460" width="30" height="20" as="geometry"/>
                </mxCell>
                <mxCell id="122" value="0" style="text;html=1;align=center;verticalAlign=middle;resizable=0;points=[];autosize=1;fontSize=12;" vertex="1" parent="1">
                    <mxGeometry x="475" y="486" width="20" height="20" as="geometry"/>
                </mxCell>
                <mxCell id="124" value="1" style="text;html=1;align=center;verticalAlign=middle;resizable=0;points=[];autosize=1;fontSize=12;" vertex="1" parent="1">
                    <mxGeometry x="475" y="536" width="20" height="20" as="geometry"/>
                </mxCell>
                <mxCell id="125" value="1" style="text;html=1;align=center;verticalAlign=middle;resizable=0;points=[];autosize=1;fontSize=12;" vertex="1" parent="1">
                    <mxGeometry x="555" y="556" width="20" height="20" as="geometry"/>
                </mxCell>
                <mxCell id="126" value="0" style="text;html=1;align=center;verticalAlign=middle;resizable=0;points=[];autosize=1;fontSize=12;" vertex="1" parent="1">
                    <mxGeometry x="555" y="510" width="20" height="20" as="geometry"/>
                </mxCell>
            </root>
        </mxGraphModel>
    </diagram>
</mxfile>